<svg xmlns="http://www.w3.org/2000/svg" viewBox="0 0 196.78 157.702"><g data-name="Layer 2"><g data-name="ART"><rect x="8.876" y="16.563" width="136.799" height="113.273" rx="18.189" transform="rotate(-11.315 77.275 73.2)" fill="#fff8e9"/><path d="M35.579 139.46a18.739 18.739 0 01-18.34-15.039l-15.086-75.4a18.729 18.729 0 0114.674-22.015l98.468-19.703a18.707 18.707 0 0122.015 14.675l15.087 75.4a18.73 18.73 0 01-14.673 22.015l-98.469 19.702a18.71 18.71 0 01-3.676.365zM119.002 7.972a17.85 17.85 0 00-3.503.349L17.031 28.024A17.69 17.69 0 003.17 48.818l15.086 75.4a17.69 17.69 0 0020.794 13.86l98.468-19.703a17.692 17.692 0 0013.86-20.794l-15.086-75.4a17.685 17.685 0 00-17.29-14.209z" fill="#3e4147"/><path d="M149.277 84.425c-56.952-1.035-87.29-4.238-138.708 4.013l8.697 43.465a10.456 10.456 0 0012.304 8.2l113.635-22.736a10.456 10.456 0 008.201-12.305z" fill="#eae4c9"/><path d="M35.579 139.88a19.16 19.16 0 01-18.75-15.377l-15.087-75.4a19.149 19.149 0 0115.003-22.508l98.468-19.703a19.128 19.128 0 0122.508 15.004l15.087 75.4a19.15 19.15 0 01-15.002 22.508l-98.469 19.702a19.176 19.176 0 01-3.758.373zM119 8.39a17.383 17.383 0 00-3.42.34L17.113 28.436a17.251 17.251 0 00-13.532 20.3l15.087 75.401a17.271 17.271 0 0020.301 13.53l98.468-19.702a17.272 17.272 0 0013.532-20.301l-15.087-75.4a17.267 17.267 0 00-16.88-13.872z" fill="#3e4147"/><path d="M142.802 52.064l-7.517-37.568a10.456 10.456 0 00-12.304-8.201L9.346 29.032a10.456 10.456 0 00-8.202 12.305l7.517 37.567z" fill="#85c3e9"/><path d="M7.926 80.007L.225 41.52a11.394 11.394 0 018.937-13.407L122.796 5.375a11.393 11.393 0 0113.408 8.938l7.701 38.486-.92.185zm117.127-72.98a9.61 9.61 0 00-1.889.188L9.53 29.953a9.517 9.517 0 00-7.466 11.2L9.397 77.8 141.698 51.33l-7.333-36.649a9.525 9.525 0 00-9.312-7.653zM21.741 93.69a.938.938 0 01-.183-1.857l112.254-22.461a.938.938 0 01.368 1.84L21.926 93.672a.997.997 0 01-.185.018z" fill="#3e4147"/><path d="M39.25 129.16a.937.937 0 01-.918-.754l-9.122-45.59a.938.938 0 111.839-.366l9.122 45.589a.938.938 0 01-.736 1.103.997.997 0 01-.185.018zM57.29 126.057a.937.937 0 01-.918-.754l-9.123-45.589a.938.938 0 111.84-.367l9.121 45.589a.938.938 0 01-.735 1.104.997.997 0 01-.185.017zM76.763 122.458a1.236 1.236 0 01-1.21-.993l-9.122-45.589a1.235 1.235 0 012.422-.484l9.122 45.589a1.235 1.235 0 01-.969 1.453 1.22 1.22 0 01-.243.024zM94.599 118.89a1.236 1.236 0 01-1.21-.993l-9.122-45.59a1.235 1.235 0 012.422-.484l9.122 45.59a1.235 1.235 0 01-.969 1.453 1.22 1.22 0 01-.243.024zM111.763 114.949a1.236 1.236 0 01-1.21-.993l-9.122-45.59a1.235 1.235 0 012.422-.485l9.122 45.59a1.235 1.235 0 01-.969 1.453 1.22 1.22 0 01-.243.025zM130.658 111.168a1.236 1.236 0 01-1.21-.993l-9.122-45.59a1.235 1.235 0 012.422-.484l9.122 45.59a1.235 1.235 0 01-.969 1.453 1.22 1.22 0 01-.243.024z" fill="#3e4147"/><path d="M24.775 108.856a.938.938 0 01-.183-1.858l112.255-22.46a.938.938 0 01.368 1.84L24.96 108.837a.997.997 0 01-.185.018zM27.81 124.022a.938.938 0 01-.183-1.858L139.88 99.703a.938.938 0 01.368 1.84L27.995 124.003a.997.997 0 01-.185.018z" fill="#3e4147"/><rect x="12.355" y="20.487" width="8.495" height="14.05" rx="4.248" transform="rotate(-11.315 16.602 27.512)" fill="#fdbe2a"/><path d="M17.136 35.423a5.188 5.188 0 01-5.074-4.17l-1.09-5.447a5.186 5.186 0 1110.17-2.035l1.09 5.448a5.185 5.185 0 01-4.068 6.102 5.262 5.262 0 01-1.028.102zm-1.078-13.945a3.316 3.316 0 00-3.247 3.96l1.09 5.447a3.31 3.31 0 003.895 2.596 3.308 3.308 0 002.597-3.894l-1.09-5.448a3.317 3.317 0 00-3.245-2.661z" fill="#3e4147"/><rect x="31.388" y="16.679" width="8.495" height="14.05" rx="4.248" transform="rotate(-11.315 35.636 23.704)" fill="#fdbe2a"/><path d="M36.17 31.615a5.189 5.189 0 01-5.073-4.17l-1.09-5.447a5.185 5.185 0 1110.169-2.035l1.09 5.448a5.185 5.185 0 01-4.067 6.101 5.262 5.262 0 01-1.03.103zm-1.078-13.946a3.315 3.315 0 00-3.246 3.961l1.09 5.448a3.308 3.308 0 003.894 2.594 3.308 3.308 0 002.597-3.893l-1.09-5.448a3.316 3.316 0 00-3.245-2.662z" fill="#3e4147"/><rect x="52.172" y="12.52" width="8.495" height="14.05" rx="4.248" transform="rotate(-11.315 56.42 19.545)" fill="#fdbe2a"/><path d="M56.963 27.455a5.194 5.194 0 01-5.083-4.17l-1.09-5.446a5.185 5.185 0 1110.169-2.034l1.09 5.446a5.186 5.186 0 01-4.067 6.103 5.193 5.193 0 01-1.019.1zm.835-1.021zm-1.923-12.923a3.31 3.31 0 00-3.246 3.961l1.09 5.446a3.31 3.31 0 003.895 2.596 3.309 3.309 0 002.596-3.895l-1.09-5.447a3.316 3.316 0 00-3.245-2.66z" fill="#3e4147"/><rect x="72.34" y="8.485" width="8.495" height="14.05" rx="4.248" transform="rotate(-11.315 76.588 15.51)" fill="#fdbe2a"/><path d="M77.132 23.42a5.195 5.195 0 01-5.084-4.169l-1.09-5.448a5.186 5.186 0 0110.17-2.035l1.09 5.448a5.194 5.194 0 01-4.068 6.103 5.189 5.189 0 01-1.018.1zm.834-1.021zM76.051 9.476a3.337 3.337 0 00-.658.065 3.308 3.308 0 00-2.596 3.894l1.09 5.448a3.31 3.31 0 006.492-1.3l-1.09-5.447a3.31 3.31 0 00-3.238-2.66z" fill="#3e4147"/><rect x="91.434" y="4.664" width="8.495" height="14.05" rx="4.248" transform="rotate(-11.315 95.682 11.69)" fill="#fdbe2a"/><path d="M96.215 19.6a5.189 5.189 0 01-5.073-4.169l-1.09-5.448a5.186 5.186 0 0110.17-2.035l1.09 5.448a5.186 5.186 0 01-4.068 6.102 5.258 5.258 0 01-1.029.102zm-1.07-13.944a3.333 3.333 0 00-.657.065 3.308 3.308 0 00-2.597 3.894l1.09 5.448a3.309 3.309 0 003.895 2.595 3.31 3.31 0 002.597-3.895l-1.09-5.447a3.31 3.31 0 00-3.239-2.66z" fill="#3e4147"/><rect x="110.329" y=".883" width="8.495" height="14.05" rx="4.248" transform="rotate(-11.315 114.577 7.909)" fill="#fdbe2a"/><path d="M115.12 15.818a5.195 5.195 0 01-5.083-4.17l-1.09-5.445a5.185 5.185 0 1110.17-2.035l1.09 5.447a5.185 5.185 0 01-5.086 6.203zm-1.087-13.944a3.316 3.316 0 00-3.247 3.961l1.09 5.447a3.307 3.307 0 003.895 2.595 3.31 3.31 0 002.597-3.895l-1.09-5.446a3.316 3.316 0 00-3.245-2.662zM32.553 46.807a2.036 2.036 0 01.747-.316.805.805 0 01.757.203 2.737 2.737 0 01.296.547l.174.402a19.57 19.57 0 011.719 3.14 12.946 12.946 0 00.802 1.677c.245.45.5.943.728 1.46.263.534.524 1.065.783 1.577a48.226 48.226 0 012.194 4.902l.055.115-.138.09a1.9 1.9 0 01-.657.299c-1.257.25-1.832-1.22-2.212-2.188-.057-.134-.082-.255-.132-.348a126.372 126.372 0 00-3.932-8.291 29.492 29.492 0 01-2.273 6.382l-.039.11-.15.031-.15.03a2.554 2.554 0 01-2.235-.742 3.393 3.393 0 00-.266-.24c-1.612-1.367-3.25-3.022-4.722-4.46l-.008-.04a16.188 16.188 0 00.145 4.146c.074.528.148 1.055.197 1.608.014.54.05 1.034.092 1.547.034.64.103 1.295.076 2.094l.004.019c-.002.147.007.353 0 .626a8.805 8.805 0 01-.081 1.769 1.453 1.453 0 01-1.076 1.32 1.832 1.832 0 01-.754-.035l-.136-.057-.024-.12c-.006-.813.012-1.651-.006-2.524.028-1.57.018-3.176-.09-4.803a46.07 46.07 0 00-.145-1.973 19.275 19.275 0 01-.05-5.54l.04-.114.141-.07a3.395 3.395 0 01.441-.13 2.27 2.27 0 011.541.234 4.077 4.077 0 01.948.687 9.14 9.14 0 011.314 1.28c.13.184.282.321.408.483 1.121 1.09 2.4 2.192 3.536 3.196a17.405 17.405 0 001.39-5.038 23.732 23.732 0 01.649-2.82l.018-.066zM46.29 58.664a7.482 7.482 0 01-3.262-1.829 7.96 7.96 0 01-2.05-4.327 8.058 8.058 0 01.738-4.718 8.16 8.16 0 014.654-3.977c.06-.012.086-.04.145-.05.03-.007.065.008.094.002.235-.068.59-.16.77-.196a10.357 10.357 0 015.836.377 8.465 8.465 0 012.97 1.617 4.064 4.064 0 011.265 2.272 8.575 8.575 0 01-.003 2.943c-.415 3.214-1.446 5.38-3.133 6.595a9.75 9.75 0 01-3.504 1.473 9.595 9.595 0 01-4.52-.181zm2.806-.601c.214-.023.394-.059.633-.106a9.085 9.085 0 003.673-1.716A7.99 7.99 0 0055.498 51a9.478 9.478 0 00.021-3.322c-.435-1.395-2.25-2.222-3.213-2.675a6.673 6.673 0 00-4.275-.355c-.359.072-.774.176-1.185.3a6.457 6.457 0 00-3.339 3.235 7.538 7.538 0 001.097 7.814 6.51 6.51 0 001.992 1.397 5.415 5.415 0 002.5.668zM69.415 39.327a1.945 1.945 0 01.635-.252 1.601 1.601 0 01.95.08l.068.029.047.074c.606 1.944 1.162 4.254 1.795 6.485.748 2.647 1.37 5.445 2.23 7.713l.057.135-.168.097a2.173 2.173 0 01-.716.31 1.989 1.989 0 01-1.804-.767l-.008-.04c-.615-.585-1.217-1.259-1.857-1.966a21.569 21.569 0 00-2.814-2.86c-2.31-1.894-4.454-3.74-6.324-4.994.212 2.149.88 8.13 1.304 11.03.127.787.123 1.392.155 1.554l.029.141-.203.082a4.213 4.213 0 01-.933.312 2.078 2.078 0 01-.522.042l-.191-.025-.027-.141c-.3-1.963-.588-4.18-.856-6.61a132.756 132.756 0 00-.722-5.783c-.11-.707-.183-1.38-.286-2.05l-.032-.161.202-.082c.176-.055.322-.105.47-.136a4.312 4.312 0 013.1.863c3.485 2.787 6.61 5.021 9.54 8.462-.351-1.6-1.286-4.25-1.835-6.06-.543-1.938-1.092-3.746-1.397-5.272l-.024-.12zM78.324 38.88c-.39.077-.84.167-1.254.27-.445.111-.89.222-1.309.306-1.078.214-2.415.378-2.85-.39l-.133-.203.355-.093a40.448 40.448 0 012.704-.645c1.048-.21 2.104-.378 3.22-.56.876-.134 1.778-.293 2.77-.47l.03-.007.36-.072c.3-.06.599-.12.894-.2.3-.06.595-.14.893-.2.84-.167 1.843-.285 2.387.254l.08.087-.074.098a1.547 1.547 0 01-1.096.596c-.179.035-.362.052-.543.088-.15.029-.332.045-.452.07-.39.077-.745.169-1.074.234-.33.067-.685.159-1.014.225-.27.054-.543.088-.783.135a95.828 95.828 0 011.966 9.666c.122.767.27 1.51.38 2.219l.005.02.08.4a1.31 1.31 0 01.015 1.165l-.048.073-.115.045a2.099 2.099 0 01-.47.135.956.956 0 01-.631-.04c-.374-.156-.416-.523-.477-.824a.54.54 0 00-.01-.207 107.767 107.767 0 00-2.562-12.34 6.72 6.72 0 00-1.244.164zM92.739 46.346a36.526 36.526 0 01.958 3.543l.02.102-.107.084a2.214 2.214 0 01-.696.263c-.539.108-.75-.016-.8-.111l-.034-.014-.003-.021a45.533 45.533 0 01-3.33-13.065l-.082-.4a.82.82 0 01.085-.977l.079-.078.149-.029a4.757 4.757 0 011.084-.03l.128.016.054.115a13.846 13.846 0 01.716 3.112 21.81 21.81 0 00.482 2.407c.407-.143.844-.294 1.281-.444a51.846 51.846 0 017.345-2.2 7.364 7.364 0 00-.293-2.55 6.146 6.146 0 01-.254-2.516l.025-.025c-.004-.02-.007-.041.023-.047.056-.178.105-.25.418-.397l.03-.005.03-.006a1.054 1.054 0 01.657.013c.51.212.608.86.694 1.448l.057.28a32.912 32.912 0 01.45 3.5c.132 1.122.22 2.188.426 3.212a24.294 24.294 0 00.673 2.431 10.725 10.725 0 01.752 3.293l-.002.147-.206.062a2.619 2.619 0 01-.35.112c-.06.012-.155.01-.214.022-.09.019-.184.016-.334.046l-.27.054-.061-.155a31.312 31.312 0 01-2.028-7.649c-.334.046-.698.098-1.057.17a39.285 39.285 0 00-5.319 1.586c-.728.25-1.483.525-2.245.762a30.828 30.828 0 001.069 3.94zM123.805 41.8a5.484 5.484 0 01.255 1.743l-.005.125-.141.07a2.878 2.878 0 01-.721.292 1.456 1.456 0 01-.529.002l-.131-.037-.047-.075a26.595 26.595 0 01-1.27-6.653 34.728 34.728 0 00-1.053-6.362 5.35 5.35 0 00-.974.737c-.186.163-.398.35-.612.519l-.03.006c-.026.027-.083.058-.108.084a6.4 6.4 0 01-1.813.906c-.448.09-.753-.037-.848-.352-.056-.281.453-.695 1.687-1.527.138-.09.276-.18.358-.238a6.576 6.576 0 00.62-.479 5.01 5.01 0 011.959-1.102 2.15 2.15 0 01.971.036l.133.035.017.08a25.97 25.97 0 011.709 8.234c.079.862.165 1.762.278 2.637a10.108 10.108 0 00.295 1.318z" fill="#3e4147"/><path d="M182.336 40.098l-4.307.128.11 3.69a3.267 3.267 0 01-3.17 3.363l-1.96.058a3.268 3.268 0 01-3.362-3.17l-.11-3.689-10.769.32.11 3.69a3.268 3.268 0 01-3.17 3.362l-1.96.058a3.267 3.267 0 01-3.362-3.169l-.11-3.69-10.972.326.11 3.69a3.267 3.267 0 01-3.17 3.363l-1.959.058a3.268 3.268 0 01-3.363-3.17l-.11-3.689-12.067.358.11 3.69a3.267 3.267 0 01-3.17 3.363l-1.96.058a3.267 3.267 0 01-3.362-3.17l-.11-3.689-12.694.377.11 3.69a3.268 3.268 0 01-3.17 3.363l-1.96.058a3.268 3.268 0 01-3.362-3.17l-.11-3.689-10.91.324.109 3.69a3.268 3.268 0 01-3.17 3.362l-1.959.059a3.268 3.268 0 01-3.363-3.17l-.11-3.689-3.164.094A10.456 10.456 0 0056.36 54.297l2.74 92.321a10.456 10.456 0 0010.761 10.141l115.836-3.437a10.456 10.456 0 0010.141-10.762l-2.74-92.32a10.456 10.456 0 00-10.76-10.142z" fill="#eae4c9"/><path d="M69.541 157.34a11.031 11.031 0 01-11.017-10.706l-2.74-92.32A11.044 11.044 0 0166.483 42.96l3.74-.111.126 4.265a2.674 2.674 0 00.844 1.879 2.751 2.751 0 001.927.732l1.96-.058a2.697 2.697 0 002.611-2.772l-.127-4.264 12.06-.357.127 4.264a2.676 2.676 0 00.845 1.88 2.815 2.815 0 001.926.732l1.96-.059a2.693 2.693 0 002.612-2.771l-.127-4.264 13.843-.411.127 4.264a2.67 2.67 0 00.845 1.88 2.737 2.737 0 001.926.732l1.96-.059a2.692 2.692 0 002.611-2.77l-.125-4.265 13.216-.392.127 4.264a2.674 2.674 0 00.844 1.88 2.75 2.75 0 001.927.732l1.96-.058a2.694 2.694 0 002.61-2.771l-.126-4.265 12.122-.36.126 4.264a2.733 2.733 0 002.772 2.612l1.96-.058a2.696 2.696 0 002.61-2.772l-.126-4.264 11.919-.354.127 4.264a2.674 2.674 0 00.844 1.88 2.77 2.77 0 001.927.732l1.96-.057a2.697 2.697 0 002.611-2.773l-.126-4.264 4.881-.144a10.826 10.826 0 017.893 2.998 10.96 10.96 0 013.46 7.701l2.74 92.32a11.044 11.044 0 01-10.699 11.353l-115.836 3.438q-.168.005-.336.005zm-.434-113.306l-2.59.076a9.893 9.893 0 00-9.583 10.17l2.74 92.321a9.881 9.881 0 0010.17 9.584l115.835-3.438a9.893 9.893 0 009.584-10.17l-2.74-92.32a9.882 9.882 0 00-10.17-9.585l-3.732.112.092 3.115a3.847 3.847 0 01-3.726 3.954l-1.96.058a3.749 3.749 0 01-2.75-1.044 3.82 3.82 0 01-1.205-2.682l-.093-3.115-9.62.285.093 3.115a3.842 3.842 0 01-3.726 3.954l-1.96.059c-.038.002-.076.002-.114.002a3.849 3.849 0 01-3.841-3.729l-.092-3.115-9.823.292.092 3.115a3.842 3.842 0 01-3.726 3.954l-1.96.058a3.717 3.717 0 01-2.749-1.044 3.818 3.818 0 01-1.206-2.682l-.092-3.115-10.919.324.093 3.116a3.84 3.84 0 01-3.727 3.953l-1.96.058a3.695 3.695 0 01-2.748-1.044 3.816 3.816 0 01-1.206-2.682l-.093-3.114-11.544.342.092 3.115a3.846 3.846 0 01-3.726 3.954l-1.96.058a3.765 3.765 0 01-2.75-1.044 3.822 3.822 0 01-1.205-2.682l-.092-3.115-9.762.29.093 3.114a3.847 3.847 0 01-3.727 3.955l-1.96.057a3.71 3.71 0 01-2.749-1.043 3.818 3.818 0 01-1.206-2.682z" fill="#3e4147"/><path d="M57.818 103.479c98.926.38 115.107 11.153 137.358 16.802l-2.078-70.041a10.456 10.456 0 00-10.762-10.142l-4.307.128.11 3.69a3.267 3.267 0 01-3.17 3.363l-1.96.058a3.267 3.267 0 01-3.362-3.17l-.11-3.689-10.769.32.11 3.69a3.267 3.267 0 01-3.17 3.362l-1.959.058a3.268 3.268 0 01-3.363-3.169l-.11-3.69-10.972.326.11 3.69a3.267 3.267 0 01-3.17 3.363l-1.959.058a3.268 3.268 0 01-3.363-3.17l-.11-3.688-12.067.357.11 3.69a3.267 3.267 0 01-3.17 3.363l-1.96.058a3.267 3.267 0 01-3.362-3.169l-.11-3.69-12.694.377.11 3.69a3.267 3.267 0 01-3.17 3.363l-1.96.058a3.268 3.268 0 01-3.362-3.17l-.11-3.689-10.91.324.109 3.69a3.268 3.268 0 01-3.17 3.362l-1.959.059a3.268 3.268 0 01-3.363-3.17l-.11-3.689-3.164.094A10.456 10.456 0 0056.36 54.297z" fill="#fff8e9"/><path d="M68.079 109.37a.938.938 0 01-.028-1.875l114.429-3.397a.964.964 0 01.965.91.938.938 0 01-.91.965L68.108 109.37z" fill="#3e4147"/><path d="M79.417 147.265a.938.938 0 01-.937-.91l-1.379-46.473a.938.938 0 01.91-.965.962.962 0 01.966.91l1.378 46.473a.938.938 0 01-.91.965zM97.722 147.22a.938.938 0 01-.937-.911l-1.379-46.473a.938.938 0 111.875-.054l1.38 46.472a.938.938 0 01-.91.965zM117.572 146.63a.938.938 0 01-.937-.91l-1.379-46.472a.938.938 0 01.91-.965.95.95 0 01.965.91l1.38 46.472a.938.938 0 01-.91.965zM135.753 146.091a.938.938 0 01-.937-.91l-1.379-46.474a.938.938 0 01.91-.964.948.948 0 01.965.91l1.38 46.473a.938.938 0 01-.91.965zM153.335 145.072a.938.938 0 01-.937-.91l-1.379-46.473a.938.938 0 111.875-.055l1.379 46.473a.938.938 0 01-.91.965zM172.596 144.5a.938.938 0 01-.937-.91l-1.38-46.473a.938.938 0 01.91-.965.953.953 0 01.966.91l1.38 46.474a.938.938 0 01-.91.964z" fill="#3e4147"/><path d="M68.537 124.829a.938.938 0 01-.027-1.875l114.429-3.396a.938.938 0 01.056 1.875l-114.43 3.396zM68.996 140.289a.938.938 0 01-.027-1.875l114.428-3.397a.95.95 0 01.966.91.938.938 0 01-.91.965l-114.429 3.397z" fill="#3e4147"/><path d="M182.336 40.098l-4.307.128.11 3.69a3.267 3.267 0 01-3.17 3.363l-1.96.058a3.268 3.268 0 01-3.362-3.17l-.11-3.689-10.77.32.11 3.69a3.268 3.268 0 01-3.169 3.362l-1.96.058a3.267 3.267 0 01-3.362-3.169l-.11-3.69-10.972.326.11 3.69a3.267 3.267 0 01-3.17 3.363l-1.959.058a3.268 3.268 0 01-3.363-3.17l-.11-3.689-12.067.358.11 3.69a3.267 3.267 0 01-3.17 3.363l-1.96.058a3.267 3.267 0 01-3.362-3.17l-.11-3.688-12.694.376.11 3.69a3.268 3.268 0 01-3.17 3.363l-1.96.058a3.268 3.268 0 01-3.362-3.17l-.11-3.689-10.91.324.109 3.69a3.268 3.268 0 01-3.17 3.362l-1.959.059a3.268 3.268 0 01-3.363-3.17l-.11-3.689-3.164.094A10.456 10.456 0 0056.36 54.298l1.136 38.295 136.74-4.058-1.137-38.295a10.456 10.456 0 00-10.762-10.142z" fill="#d8e9f7"/><path d="M91.199 78.774l.003.082-.06.062a1.37 1.37 0 01-.998.338 2.361 2.361 0 01-.52-.026l-.213-.015-.036-.12a72.431 72.431 0 01-1.768-7.112c-.418-1.729-.69-3.686-1.23-5.451a35.03 35.03 0 00-1.88 3.597 23.976 23.976 0 01-1.003 2.2v.021a.326.326 0 00-.088.125c-.436.77-.848 1.294-1.395 1.372a.396.396 0 01-.152.025c-.946.028-1.366-.758-1.658-1.323a2.964 2.964 0 00-.225-.361 4.793 4.793 0 00-.355-.645 52.124 52.124 0 00-2.67-4.547c-.345 1.75-.56 3.762-.808 5.736-.194 1.663-.598 3.518-.731 5.18a2.534 2.534 0 01-.187.948.996.996 0 01-.959.601 2.391 2.391 0 01-.612-.064l-.185-.035-.005-.144a11.66 11.66 0 01.416-3.492c.628-3.56.704-7.146 1.503-11.12l.152-.045a2.551 2.551 0 01.577-.099c1.312-.039 1.867 1.173 2.314 1.835a37.847 37.847 0 012.469 3.92c.291.543.71 1.308.936 1.67.493-.894.945-2.096 1.408-2.99a42.56 42.56 0 012.485-4.76v-.021l.06-.043a1.102 1.102 0 01.665-.225.874.874 0 01.214.014c.52.026.96.464 1.265 1.457 1.281 4.056 1.773 9.282 3.27 13.455zM97.376 78.038a7.491 7.491 0 01-2.91-2.35 7.97 7.97 0 01-1.298-4.607 8.063 8.063 0 011.515-4.53 8.172 8.172 0 015.253-3.144c.062-.002.09-.024.151-.026.03 0 .063.02.093.019.243-.028.61-.06.792-.066a10.368 10.368 0 015.692 1.347 8.49 8.49 0 012.658 2.09 4.068 4.068 0 01.867 2.453 8.586 8.586 0 01-.495 2.901c-.946 3.098-2.323 5.064-4.19 5.979a9.752 9.752 0 01-3.702.867 9.613 9.613 0 01-4.426-.933zm2.869-.125c.213.013.396.007.64 0a9.09 9.09 0 003.91-1.078 7.996 7.996 0 002.942-4.816 9.495 9.495 0 00.574-3.271c-.195-1.449-1.848-2.566-2.72-3.175a6.68 6.68 0 00-4.157-1.064c-.365.011-.792.044-1.219.098a6.454 6.454 0 00-3.83 2.632 7.538 7.538 0 00-.225 7.887 6.505 6.505 0 001.73 1.71 5.401 5.401 0 002.355 1.077zM123.407 62.833a1.943 1.943 0 01.668-.142 1.597 1.597 0 01.924.24l.061.038.033.08c.275 2.019.436 4.389.688 6.696.295 2.733.44 5.595.909 7.976l.035.143-.183.066a2.165 2.165 0 01-.757.186 1.991 1.991 0 01-1.65-1.057l-.002-.04c-.509-.68-.989-1.444-1.503-2.249a21.413 21.413 0 00-2.296-3.289c-1.96-2.254-3.766-4.432-5.4-5.98-.151 2.154-.492 8.162-.558 11.091-.006.798-.11 1.395-.106 1.559l.004.142-.212.048a4.18 4.18 0 01-.974.152 2.095 2.095 0 01-.52-.045l-.185-.057-.004-.142c.034-1.988.12-4.221.26-6.662.125-1.97.22-3.917.255-5.82.01-.718.05-1.395.062-2.07l-.005-.163.212-.048a4.238 4.238 0 01.487-.056 4.307 4.307 0 012.912 1.367c2.97 3.33 5.678 6.055 7.993 9.937-.08-1.636-.56-4.405-.798-6.281-.213-2-.45-3.876-.497-5.431l-.004-.123zM132.265 63.881c-.396.012-.854.026-1.281.058-.458.034-.914.068-1.342.08-1.099.034-2.444-.028-2.744-.858l-.099-.223.366-.031a39.773 39.773 0 012.775-.186c1.068-.031 2.138-.021 3.267-.015.886.015 1.803.01 2.811 0l.03-.003.366-.01c.305-.01.61-.019.915-.047.306-.009.61-.038.915-.048.854-.025 1.864.026 2.31.647l.065.101-.09.085a1.552 1.552 0 01-1.179.403c-.183.006-.367-.01-.55-.004-.152.004-.336-.01-.459-.007-.396.012-.762.044-1.097.053-.336.011-.702.042-1.038.052-.274.008-.55-.004-.794.002a96.087 96.087 0 01.324 9.858c-.007.778.015 1.535.006 2.251v.021l.012.41a1.315 1.315 0 01-.18 1.152l-.059.062-.121.023a2.1 2.1 0 01-.487.057.956.956 0 01-.616-.146c-.342-.215-.323-.584-.332-.891a.516.516 0 00.025-.205 107.614 107.614 0 00-.465-12.597 6.711 6.711 0 00-1.254-.044zM145.23 73.65c.158 1.203.317 2.447.353 3.653l.003.103-.12.065a2.183 2.183 0 01-.728.145c-.55.015-.739-.143-.772-.244l-.031-.02-.001-.02a45.598 45.598 0 01-1.1-13.437l-.012-.41a.82.82 0 01.246-.948l.09-.064.153-.005a4.937 4.937 0 011.073.153l.122.037.035.122a13.841 13.841 0 01.187 3.187 22.011 22.011 0 00.072 2.455c.426-.074.882-.148 1.338-.224a51.732 51.732 0 017.609-.943 7.329 7.329 0 00.137-2.562 6.146 6.146 0 01.17-2.524l.03-.02c-.002-.02-.002-.041.029-.042.087-.167.146-.23.48-.321l.03-.002h.03a1.06 1.06 0 01.645.123c.467.295.456.949.443 1.543l.008.287a33.162 33.162 0 01-.14 3.525c-.057 1.127-.148 2.194-.116 3.237a24.868 24.868 0 00.257 2.511 10.713 10.713 0 01.192 3.371l-.027.145-.212.027a2.653 2.653 0 01-.366.052c-.06 0-.153-.017-.215-.015-.091.003-.183-.014-.335-.01l-.275.008-.035-.163a31.307 31.307 0 01-.723-7.88c-.337-.01-.703-.02-1.069-.01a39.275 39.275 0 00-5.509.676c-.76.125-1.55.272-2.34.377a30.662 30.662 0 00.394 4.062zM173.784 63.181a1.855 1.855 0 00-1.112-.376l-.244.007a6.516 6.516 0 00-1.821.361.29.29 0 01-.121.044 7.244 7.244 0 00-.813.414 3.35 3.35 0 01-1.662.622 2.768 2.768 0 01-.952-.176l-.124-.058-.003-.103c-.02-.673 1.189-1.12 2.096-1.433l.06-.023a9.275 9.275 0 013.156-.708 5.159 5.159 0 012.52.498 3.404 3.404 0 011.668 3.72c-.194 2.706-2.23 5.12-3.999 7.26a21.591 21.591 0 00-1.68 2.098c1.37-.164 2.927-.21 4.453-.255 1.252-.037 2.441-.073 3.507-.186l.488-.035-.117.209c.216.076.586.187.595.494a.507.507 0 01-.172.395 2.824 2.824 0 01-1.426.287l-.58.017-.367.011v-.02a63.898 63.898 0 00-2.87.023c-.763.043-1.494.106-2.164.187-.73.083-1.43.165-2.04.184a5.548 5.548 0 01-1.562-.139l-.093-.037-.064-.06c-.379-.44.036-.84.365-1.116a1.206 1.206 0 00.266-.294l.03-.001c.591-.673 1.09-1.364 1.649-2.076.382-.523.794-1.047 1.236-1.593a12.522 12.522 0 002.678-5.483 2.878 2.878 0 00-.781-2.659z" fill="#3e4147"/><path d="M69.54 157.702a11.394 11.394 0 01-11.379-11.057l-2.74-92.32a11.408 11.408 0 0111.051-11.727l4.103-.121.136 4.627a2.337 2.337 0 002.398 2.259l1.96-.058a2.333 2.333 0 002.26-2.398l-.138-4.626 12.786-.38.137 4.627a2.315 2.315 0 00.731 1.627 2.286 2.286 0 001.667.633l1.96-.059a2.33 2.33 0 002.259-2.398l-.137-4.626 14.569-.432.137 4.626a2.328 2.328 0 002.398 2.26l1.96-.059a2.328 2.328 0 002.258-2.396l-.136-4.627 13.942-.414.137 4.626a2.323 2.323 0 002.398 2.26l1.96-.058a2.33 2.33 0 002.26-2.398l-.138-4.627 12.847-.382.137 4.627a2.315 2.315 0 002.399 2.26l1.959-.058a2.332 2.332 0 002.259-2.398l-.137-4.627 12.644-.375.137 4.626a2.315 2.315 0 00.731 1.627 2.34 2.34 0 001.667.633l1.96-.058a2.333 2.333 0 002.26-2.398l-.138-4.626 5.245-.156a11.394 11.394 0 0111.726 11.051l2.74 92.32a11.408 11.408 0 01-11.05 11.727l-115.837 3.438c-.116.003-.232.005-.348.005zm-.785-113.295l-2.227.066a9.53 9.53 0 00-9.232 9.797l2.74 92.32a9.518 9.518 0 009.796 9.232l115.836-3.438a9.53 9.53 0 009.232-9.796l-2.74-92.321a9.517 9.517 0 00-9.796-9.231l-3.37.1.082 2.752a4.211 4.211 0 01-4.078 4.328l-1.96.058a4.205 4.205 0 01-4.329-4.078l-.082-2.753-8.894.263.082 2.753a4.21 4.21 0 01-4.079 4.329l-1.96.058a4.23 4.23 0 01-4.328-4.079l-.081-2.753-9.097.27.081 2.754a4.21 4.21 0 01-4.079 4.328l-1.96.057a4.245 4.245 0 01-4.328-4.078l-.081-2.753-10.193.303.081 2.753a4.205 4.205 0 01-4.078 4.327l-1.96.059a4.205 4.205 0 01-4.328-4.08l-.082-2.751-10.819.32.082 2.753a4.205 4.205 0 01-4.079 4.328l-1.96.059a4.256 4.256 0 01-3.008-1.144 4.179 4.179 0 01-1.32-2.936l-.081-2.752-9.036.268.082 2.752a4.212 4.212 0 01-4.08 4.33l-1.96.057a4.236 4.236 0 01-3.008-1.143 4.181 4.181 0 01-1.32-2.935z" fill="#3e4147"/></g></g></svg>
